<svg width="22" height="12" viewBox="0 0 22 12" fill="none" xmlns="http://www.w3.org/2000/svg">
<path d="M21.7115 11.5303C21.5709 11.6708 21.3802 11.7497 21.1815 11.7497C20.9827 11.7497 20.7921 11.6708 20.6515 11.5303L11.1815 2.06157L1.71149 11.5303C1.56931 11.6628 1.38127 11.7349 1.18696 11.7315C0.992663 11.7281 0.807278 11.6494 0.669865 11.5119C0.532452 11.3745 0.45374 11.1891 0.450312 10.9948C0.446884 10.8005 0.519007 10.6125 0.651487 10.4703L10.6515 0.470317C10.7921 0.329866 10.9827 0.250977 11.1815 0.250977C11.3802 0.250977 11.5709 0.329866 11.7115 0.470317L21.7115 10.4703C21.8519 10.6109 21.9308 10.8016 21.9308 11.0003C21.9308 11.1991 21.8519 11.3897 21.7115 11.5303Z" fill="#FAFAFC"/>
</svg>
