<svg width="22" height="12" viewBox="0 0 22 12" fill="none" xmlns="http://www.w3.org/2000/svg">
<path d="M0.649838 0.469685C0.790464 0.329234 0.981088 0.250345 1.17984 0.250345C1.37859 0.250345 1.56921 0.329234 1.70984 0.469684L11.1798 9.93843L20.6498 0.469683C20.792 0.337203 20.9801 0.265081 21.1744 0.268509C21.3687 0.271937 21.554 0.350649 21.6915 0.488062C21.8289 0.625475 21.9076 0.81086 21.911 1.00516C21.9144 1.19946 21.8423 1.38751 21.7098 1.52968L11.7098 11.5297C11.5692 11.6701 11.3786 11.749 11.1798 11.749C10.9811 11.749 10.7905 11.6701 10.6498 11.5297L0.649839 1.52969C0.509388 1.38906 0.430499 1.19844 0.430499 0.999685C0.430499 0.800935 0.509388 0.61031 0.649838 0.469685Z" fill="#FAFAFC"/>
</svg>
