<svg width="630" height="636" viewBox="0 0 630 636" fill="none" xmlns="http://www.w3.org/2000/svg">
<path d="M467.489 5.91643C532.923 24.184 585.295 87.6905 611.619 157.538C637.093 227.535 636.37 303.023 604.808 357.655C573.946 411.287 511.395 444.212 464.438 491.04C418.48 538.569 387.266 600.149 339.815 624.281C291.366 647.712 225.531 632.144 162.999 605.478C101.167 577.813 43.3384 538.052 18.0092 483.802C-7.31991 429.553 1.55023 360.516 1.97425 283.328C3.24819 205.991 -2.07447 121.052 37.9822 79.8209C78.0388 38.5898 162.775 42.0658 244.666 29.3933C325.707 16.8705 403.054 -11.6509 467.489 5.91643Z" fill="url(#paint0_linear_2463_25)"/>
<defs>
<linearGradient id="paint0_linear_2463_25" x1="46.9586" y1="680.019" x2="536.62" y2="-66.4694" gradientUnits="userSpaceOnUse">
<stop stop-color="#F0A94A"/>
<stop offset="1" stop-color="#DF4A29"/>
</linearGradient>
</defs>
</svg>
