<svg width="151" height="32" viewBox="0 0 151 32" fill="none" xmlns="http://www.w3.org/2000/svg">
<path d="M42.612 15.4678V14.2148C42.85 14.2381 43.046 14.2264 43.2 14.1798C43.3587 14.1284 43.4917 14.0304 43.599 13.8858C43.7064 13.7364 43.7974 13.5218 43.872 13.2418C43.9514 12.9618 44.0284 12.6001 44.103 12.1568C44.2057 11.5921 44.292 11.0111 44.362 10.4138C44.432 9.81645 44.4904 9.22378 44.537 8.63578C44.5884 8.04312 44.6304 7.47145 44.663 6.92078C44.6957 6.37012 44.7214 5.85912 44.74 5.38778H51.355V15.4678H49.892V6.76678H46.112C46.0887 7.14012 46.0607 7.55778 46.028 8.01978C45.9954 8.48178 45.9557 8.97178 45.909 9.48978C45.8624 10.0078 45.804 10.5421 45.734 11.0928C45.6687 11.6434 45.5847 12.1964 45.482 12.7518C45.398 13.2278 45.2954 13.6571 45.174 14.0398C45.0527 14.4224 44.8894 14.7421 44.684 14.9988C44.4787 15.2508 44.2104 15.4188 43.879 15.5028C43.5477 15.5914 43.1254 15.5798 42.612 15.4678ZM57.5268 15.6778C56.5188 15.6778 55.6602 15.4584 54.9508 15.0198C54.2415 14.5764 53.6978 13.9604 53.3198 13.1718C52.9465 12.3831 52.7598 11.4684 52.7598 10.4278C52.7598 9.38712 52.9465 8.47245 53.3198 7.68378C53.6978 6.89512 54.2415 6.28145 54.9508 5.84278C55.6602 5.39945 56.5188 5.17778 57.5268 5.17778C58.5302 5.17778 59.3865 5.39945 60.0958 5.84278C60.8098 6.28145 61.3535 6.89512 61.7268 7.68378C62.1002 8.47245 62.2868 9.38712 62.2868 10.4278C62.2868 11.4684 62.1002 12.3831 61.7268 13.1718C61.3535 13.9604 60.8098 14.5764 60.0958 15.0198C59.3865 15.4584 58.5302 15.6778 57.5268 15.6778ZM57.5268 14.2848C58.2408 14.2941 58.8335 14.1378 59.3048 13.8158C59.7808 13.4891 60.1378 13.0364 60.3758 12.4578C60.6138 11.8744 60.7328 11.1978 60.7328 10.4278C60.7328 9.65778 60.6138 8.98578 60.3758 8.41178C60.1378 7.83312 59.7808 7.38278 59.3048 7.06078C58.8335 6.73878 58.2408 6.57545 57.5268 6.57078C56.8128 6.56145 56.2178 6.71778 55.7418 7.03978C55.2705 7.36178 54.9158 7.81445 54.6778 8.39778C54.4398 8.98112 54.3185 9.65778 54.3138 10.4278C54.3092 11.1978 54.4258 11.8721 54.6638 12.4508C54.9018 13.0248 55.2588 13.4728 55.7348 13.7948C56.2155 14.1168 56.8128 14.2801 57.5268 14.2848ZM63.6831 15.4678V5.38778H70.1231V6.76678H65.1461V15.4678H63.6831ZM75.4507 15.6778C74.4427 15.6778 73.584 15.4584 72.8747 15.0198C72.1653 14.5764 71.6217 13.9604 71.2437 13.1718C70.8703 12.3831 70.6837 11.4684 70.6837 10.4278C70.6837 9.38712 70.8703 8.47245 71.2437 7.68378C71.6217 6.89512 72.1653 6.28145 72.8747 5.84278C73.584 5.39945 74.4427 5.17778 75.4507 5.17778C76.454 5.17778 77.3103 5.39945 78.0197 5.84278C78.7337 6.28145 79.2773 6.89512 79.6507 7.68378C80.024 8.47245 80.2107 9.38712 80.2107 10.4278C80.2107 11.4684 80.024 12.3831 79.6507 13.1718C79.2773 13.9604 78.7337 14.5764 78.0197 15.0198C77.3103 15.4584 76.454 15.6778 75.4507 15.6778ZM75.4507 14.2848C76.1647 14.2941 76.7573 14.1378 77.2287 13.8158C77.7047 13.4891 78.0617 13.0364 78.2997 12.4578C78.5377 11.8744 78.6567 11.1978 78.6567 10.4278C78.6567 9.65778 78.5377 8.98578 78.2997 8.41178C78.0617 7.83312 77.7047 7.38278 77.2287 7.06078C76.7573 6.73878 76.1647 6.57545 75.4507 6.57078C74.7367 6.56145 74.1417 6.71778 73.6657 7.03978C73.1943 7.36178 72.8397 7.81445 72.6017 8.39778C72.3637 8.98112 72.2423 9.65778 72.2377 10.4278C72.233 11.1978 72.3497 11.8721 72.5877 12.4508C72.8257 13.0248 73.1827 13.4728 73.6587 13.7948C74.1393 14.1168 74.7367 14.2801 75.4507 14.2848ZM83.8465 15.4678V6.76678H80.4935V5.38778H88.6625V6.76678H85.3095V15.4678H83.8465ZM97.7137 15.4678H96.2297V7.97078L91.2667 15.4678H89.7827V5.38778H91.2667V12.8778L96.2297 5.38778H97.7137V15.4678ZM99.6675 15.4678V5.38778H107.683V15.4678H106.22V6.76678H101.131V15.4678H99.6675Z" fill="#242115"/>
<rect width="151" height="12.0644" transform="translate(0 19.4678)" fill="#242115"/>
</svg>
