<svg width="152" height="32" viewBox="0 0 152 32" fill="none" xmlns="http://www.w3.org/2000/svg">
<path d="M42.7927 15V13.747C43.0307 13.7703 43.2267 13.7587 43.3807 13.712C43.5394 13.6607 43.6724 13.5627 43.7797 13.418C43.887 13.2687 43.978 13.054 44.0527 12.774C44.132 12.494 44.209 12.1323 44.2837 11.689C44.3864 11.1243 44.4727 10.5433 44.5427 9.946C44.6127 9.34867 44.671 8.756 44.7177 8.168C44.769 7.57533 44.811 7.00367 44.8437 6.453C44.8764 5.90233 44.902 5.39133 44.9207 4.92H51.5357V15H50.0727V6.299H46.2927C46.2694 6.67233 46.2414 7.09 46.2087 7.552C46.176 8.014 46.1364 8.504 46.0897 9.022C46.043 9.54 45.9847 10.0743 45.9147 10.625C45.8494 11.1757 45.7654 11.7287 45.6627 12.284C45.5787 12.76 45.476 13.1893 45.3547 13.572C45.2334 13.9547 45.07 14.2743 44.8647 14.531C44.6594 14.783 44.391 14.951 44.0597 15.035C43.7284 15.1237 43.306 15.112 42.7927 15ZM57.7075 15.21C56.6995 15.21 55.8408 14.9907 55.1315 14.552C54.4222 14.1087 53.8785 13.4927 53.5005 12.704C53.1272 11.9153 52.9405 11.0007 52.9405 9.96C52.9405 8.91933 53.1272 8.00467 53.5005 7.216C53.8785 6.42733 54.4222 5.81367 55.1315 5.375C55.8408 4.93167 56.6995 4.71 57.7075 4.71C58.7108 4.71 59.5672 4.93167 60.2765 5.375C60.9905 5.81367 61.5342 6.42733 61.9075 7.216C62.2808 8.00467 62.4675 8.91933 62.4675 9.96C62.4675 11.0007 62.2808 11.9153 61.9075 12.704C61.5342 13.4927 60.9905 14.1087 60.2765 14.552C59.5672 14.9907 58.7108 15.21 57.7075 15.21ZM57.7075 13.817C58.4215 13.8263 59.0142 13.67 59.4855 13.348C59.9615 13.0213 60.3185 12.5687 60.5565 11.99C60.7945 11.4067 60.9135 10.73 60.9135 9.96C60.9135 9.19 60.7945 8.518 60.5565 7.944C60.3185 7.36533 59.9615 6.915 59.4855 6.593C59.0142 6.271 58.4215 6.10767 57.7075 6.103C56.9935 6.09367 56.3985 6.25 55.9225 6.572C55.4512 6.894 55.0965 7.34667 54.8585 7.93C54.6205 8.51333 54.4992 9.19 54.4945 9.96C54.4898 10.73 54.6065 11.4043 54.8445 11.983C55.0825 12.557 55.4395 13.005 55.9155 13.327C56.3962 13.649 56.9935 13.8123 57.7075 13.817ZM63.8638 15V4.92H70.3038V6.299H65.3268V15H63.8638ZM75.6313 15.21C74.6233 15.21 73.7647 14.9907 73.0553 14.552C72.346 14.1087 71.8023 13.4927 71.4243 12.704C71.051 11.9153 70.8643 11.0007 70.8643 9.96C70.8643 8.91933 71.051 8.00467 71.4243 7.216C71.8023 6.42733 72.346 5.81367 73.0553 5.375C73.7647 4.93167 74.6233 4.71 75.6313 4.71C76.6347 4.71 77.491 4.93167 78.2003 5.375C78.9143 5.81367 79.458 6.42733 79.8313 7.216C80.2047 8.00467 80.3913 8.91933 80.3913 9.96C80.3913 11.0007 80.2047 11.9153 79.8313 12.704C79.458 13.4927 78.9143 14.1087 78.2003 14.552C77.491 14.9907 76.6347 15.21 75.6313 15.21ZM75.6313 13.817C76.3453 13.8263 76.938 13.67 77.4093 13.348C77.8853 13.0213 78.2423 12.5687 78.4803 11.99C78.7183 11.4067 78.8373 10.73 78.8373 9.96C78.8373 9.19 78.7183 8.518 78.4803 7.944C78.2423 7.36533 77.8853 6.915 77.4093 6.593C76.938 6.271 76.3453 6.10767 75.6313 6.103C74.9173 6.09367 74.3223 6.25 73.8463 6.572C73.375 6.894 73.0203 7.34667 72.7823 7.93C72.5443 8.51333 72.423 9.19 72.4183 9.96C72.4137 10.73 72.5303 11.4043 72.7683 11.983C73.0063 12.557 73.3633 13.005 73.8393 13.327C74.32 13.649 74.9173 13.8123 75.6313 13.817ZM84.0272 15V6.299H80.6742V4.92H88.8432V6.299H85.4902V15H84.0272ZM97.8944 15H96.4104V7.503L91.4474 15H89.9634V4.92H91.4474V12.41L96.4104 4.92H97.8944V15ZM99.8482 15V4.92H107.863V15H106.4V6.299H101.311V15H99.8482Z" fill="#FAFAFC"/>
<rect width="151" height="12.0644" transform="translate(0.180664 19)" fill="#FAFAFC"/>
</svg>
