<svg width="17" height="18" viewBox="0 0 17 18" fill="none" xmlns="http://www.w3.org/2000/svg">
<path d="M16.1277 12.0456L12.0664 10.2255C11.8823 10.1467 11.6816 10.115 11.4822 10.1333C11.2829 10.1516 11.0912 10.2194 10.9246 10.3304C10.9077 10.3413 10.8916 10.3533 10.8765 10.3665L8.75381 12.172C8.73179 12.184 8.70727 12.1907 8.6822 12.1916C8.65713 12.1925 8.6322 12.1875 8.60938 12.1771C7.24498 11.5186 5.83158 10.1138 5.17044 8.76829C5.15943 8.74581 5.15371 8.7211 5.15371 8.69607C5.15371 8.67104 5.15943 8.64634 5.17044 8.62385L6.9819 6.47452C6.9949 6.45862 7.00696 6.44197 7.01801 6.42466C7.12753 6.25744 7.19368 6.06559 7.21049 5.86641C7.2273 5.66723 7.19425 5.467 7.1143 5.28379L5.30714 1.22929C5.20451 0.989949 5.02703 0.790348 4.80133 0.660444C4.57562 0.530541 4.31388 0.477343 4.05537 0.508835C2.93189 0.656534 1.90063 1.20826 1.15431 2.06091C0.40798 2.91356 -0.00234508 4.00879 1.00824e-05 5.14194C1.00824e-05 11.8736 5.47651 17.3501 12.2082 17.3501C13.3413 17.3523 14.4364 16.9419 15.2891 16.1956C16.1417 15.4493 16.6934 14.4182 16.8413 13.2948C16.8727 13.0375 16.8203 12.7769 16.6917 12.5518C16.5631 12.3268 16.3653 12.1492 16.1277 12.0456ZM12.2082 16.3185C6.04565 16.3185 1.03169 11.3045 1.03169 5.14194C1.02882 4.25979 1.34721 3.40677 1.9274 2.74226C2.50758 2.07774 3.30986 1.6472 4.18433 1.53106H4.2041C4.23875 1.5317 4.27239 1.5428 4.30062 1.5629C4.32885 1.583 4.35035 1.61116 4.3623 1.64368L6.17633 5.69388C6.18668 5.7164 6.19203 5.74089 6.19203 5.76567C6.19203 5.79045 6.18668 5.81494 6.17633 5.83746L4.36144 7.99195C4.3479 8.00733 4.33554 8.02371 4.32447 8.04096C4.2109 8.21433 4.14403 8.41409 4.13032 8.62089C4.11661 8.82769 4.15654 9.03453 4.24623 9.22137C5.00881 10.7826 6.58213 12.3439 8.16059 13.1065C8.34853 13.1957 8.55638 13.2347 8.76386 13.2196C8.97134 13.2045 9.17137 13.1359 9.34445 13.0205C9.36078 13.0094 9.37712 12.9973 9.39259 12.9844L11.5144 11.179C11.5354 11.1677 11.5585 11.1611 11.5823 11.1596C11.606 11.1582 11.6298 11.1618 11.652 11.1704L15.7142 12.9904C15.7474 13.0046 15.7753 13.0288 15.794 13.0596C15.8126 13.0905 15.8211 13.1264 15.8182 13.1624C15.7027 14.0373 15.2726 14.8401 14.6082 15.421C13.9438 16.0018 13.0907 16.3208 12.2082 16.3185Z" fill="#242115"/>
</svg>
